<?xml version="1.0" encoding="iso-8859-1"?>
<!-- Uploaded to: SVG Repo, www.svgrepo.com, Generator: SVG Repo Mixer Tools -->
<svg height="800px" width="800px" version="1.1" id="Layer_1" xmlns="http://www.w3.org/2000/svg" xmlns:xlink="http://www.w3.org/1999/xlink" 
	 viewBox="0 0 512 512" xml:space="preserve">
<path style="fill:#FFFFFF;" d="M304.35,165.234c11.087,0,20.117,9.03,20.117,20.129c0,11.087-9.03,20.117-20.117,20.117
	c-11.098,0-20.129-9.03-20.129-20.117C284.221,174.264,293.251,165.234,304.35,165.234z"/>
<path style="fill:#1E0478;" d="M512,67.461v377.078c0,12.466-10.138,22.604-22.604,22.604H22.604
	C10.138,467.143,0,457.005,0,444.539V67.461c0-12.466,10.138-22.604,22.604-22.604h466.792C501.862,44.857,512,54.995,512,67.461z
	 M489.396,444.539V67.461H22.604v377.078c0,0.011,0,0.011,0,0.011L489.396,444.539z"/>
<path style="fill:#FFFFFF;" d="M489.396,67.461v377.078L22.604,444.55c0,0,0,0,0-0.011V67.461H489.396z M458.271,359.684V109.877
	c0-6.239-5.052-11.302-11.302-11.302H65.031c-6.25,0-11.302,5.063-11.302,11.302v249.807c0,6.239,5.052,11.302,11.302,11.302
	h381.937C453.219,370.986,458.271,365.923,458.271,359.684z M251.988,407.762c0-6.25-5.052-11.302-11.302-11.302h-25.78
	c-6.239,0-11.302,5.052-11.302,11.302c0,6.239,5.063,11.302,11.302,11.302h25.78C246.936,419.064,251.988,414.001,251.988,407.762z
	 M174.637,407.762c0-6.25-5.063-11.302-11.302-11.302H65.031c-6.25,0-11.302,5.052-11.302,11.302
	c0,6.239,5.052,11.302,11.302,11.302h98.304C169.574,419.064,174.637,414.001,174.637,407.762z"/>
<path style="fill:#1E0478;" d="M458.271,109.877v249.807c0,6.239-5.052,11.302-11.302,11.302H65.031
	c-6.25,0-11.302-5.063-11.302-11.302V109.877c0-6.239,5.052-11.302,11.302-11.302h381.937
	C453.219,98.575,458.271,103.639,458.271,109.877z M435.667,348.382v-4.566c-0.927-0.509-1.808-1.142-2.588-1.933l-76.627-76.616
	l-35.432,35.432l47.683,47.683H435.667z M435.667,312.521V121.179H76.333v177.135l113.166-113.155
	c4.408-4.408,11.573-4.408,15.981,0l99.559,99.559l43.422-43.422c4.419-4.408,11.573-4.408,15.981,0L435.667,312.521z
	 M336.73,348.382L197.49,209.131L76.333,330.276v18.106H336.73z"/>
<path style="fill:#9B8CCC;" d="M435.667,343.816v4.566h-66.964l-47.683-47.683l35.432-35.432l76.627,76.616
	C433.858,342.675,434.74,343.307,435.667,343.816z"/>
<path style="fill:#94E7EF;" d="M435.667,121.179v191.342l-71.225-71.225c-4.408-4.408-11.562-4.408-15.981,0l-43.422,43.422
	L205.48,185.16c-4.408-4.408-11.573-4.408-15.981,0L76.333,298.314V121.179H435.667z M347.071,185.363
	c0-23.565-19.168-42.733-42.721-42.733c-23.565,0-42.733,19.168-42.733,42.733c0,23.553,19.168,42.721,42.733,42.721
	C327.903,228.084,347.071,208.916,347.071,185.363z"/>
<polygon style="fill:#9B8CCC;" points="197.49,209.131 336.73,348.382 76.333,348.382 76.333,330.276 "/>
<g>
	<path style="fill:#1E0478;" d="M304.35,142.63c23.553,0,42.721,19.168,42.721,42.733c0,23.553-19.168,42.721-42.721,42.721
		c-23.565,0-42.733-19.168-42.733-42.721C261.617,161.798,280.785,142.63,304.35,142.63z M324.467,185.363
		c0-11.098-9.03-20.129-20.117-20.129c-11.098,0-20.129,9.03-20.129,20.129c0,11.087,9.03,20.117,20.129,20.117
		C315.437,205.48,324.467,196.45,324.467,185.363z"/>
	<path style="fill:#1E0478;" d="M240.686,396.46c6.25,0,11.302,5.052,11.302,11.302c0,6.239-5.052,11.302-11.302,11.302h-25.78
		c-6.239,0-11.302-5.063-11.302-11.302c0-6.25,5.063-11.302,11.302-11.302H240.686z"/>
	<path style="fill:#1E0478;" d="M163.335,396.46c6.239,0,11.302,5.052,11.302,11.302c0,6.239-5.063,11.302-11.302,11.302H65.031
		c-6.25,0-11.302-5.063-11.302-11.302c0-6.25,5.052-11.302,11.302-11.302H163.335z"/>
</g>
</svg>